<svg xmlns="http://www.w3.org/2000/svg" width="88" height="88" viewBox="0 0 88 88">
  <g id="logo" transform="translate(-79 -237)">
    <g id="타원_1" data-name="타원 1" transform="translate(79 237)" fill="#d8d8d8" stroke="#e9e9e9" stroke-width="0.5">
      <circle cx="13" cy="13" r="13" stroke="none"/>
      <circle cx="13" cy="13" r="12.75" fill="none"/>
    </g>
    <g id="타원_2" data-name="타원 2" transform="translate(79 237)" fill="#d8d8d8" stroke="#e9e9e9" stroke-width="0.5">
      <circle cx="13" cy="13" r="13" stroke="none"/>
      <circle cx="13" cy="13" r="12.75" fill="none"/>
    </g>
    <g id="타원_7" data-name="타원 7" transform="translate(79 268)" fill="#d8d8d8" stroke="#e9e9e9" stroke-width="0.5">
      <circle cx="13" cy="13" r="13" stroke="none"/>
      <circle cx="13" cy="13" r="12.75" fill="none"/>
    </g>
    <g id="타원_10" data-name="타원 10" transform="translate(79 299)" fill="#d8d8d8" stroke="#e9e9e9" stroke-width="0.5">
      <circle cx="13" cy="13" r="13" stroke="none"/>
      <circle cx="13" cy="13" r="12.75" fill="none"/>
    </g>
    <g id="타원_3" data-name="타원 3" transform="translate(110 237)" fill="#d8d8d8" stroke="#e9e9e9" stroke-width="0.5">
      <circle cx="13" cy="13" r="13" stroke="none"/>
      <circle cx="13" cy="13" r="12.75" fill="none"/>
    </g>
    <g id="타원_5" data-name="타원 5" transform="translate(110 268)" fill="#d8d8d8" stroke="#e9e9e9" stroke-width="0.5">
      <circle cx="13" cy="13" r="13" stroke="none"/>
      <circle cx="13" cy="13" r="12.75" fill="none"/>
    </g>
    <g id="타원_8" data-name="타원 8" transform="translate(110 299)" fill="#d8d8d8" stroke="#e9e9e9" stroke-width="0.5">
      <circle cx="13" cy="13" r="13" stroke="none"/>
      <circle cx="13" cy="13" r="12.75" fill="none"/>
    </g>
    <g id="타원_4" data-name="타원 4" transform="translate(141 237)" fill="#d8d8d8" stroke="#e9e9e9" stroke-width="0.5">
      <circle cx="13" cy="13" r="13" stroke="none"/>
      <circle cx="13" cy="13" r="12.75" fill="none"/>
    </g>
    <g id="타원_6" data-name="타원 6" transform="translate(141 268)" fill="#d8d8d8" stroke="#e9e9e9" stroke-width="0.5">
      <circle cx="13" cy="13" r="13" stroke="none"/>
      <circle cx="13" cy="13" r="12.75" fill="none"/>
    </g>
    <g id="타원_9" data-name="타원 9" transform="translate(141 299)" fill="#d8d8d8" stroke="#e9e9e9" stroke-width="0.5">
      <circle cx="13" cy="13" r="13" stroke="none"/>
      <circle cx="13" cy="13" r="12.75" fill="none"/>
    </g>
  </g>
</svg>
